<?xml version="1.0" encoding="utf-8"?>
<!-- Generator: Adobe Illustrator 16.0.0, SVG Export Plug-In . SVG Version: 6.00 Build 0)  -->
<!DOCTYPE svg PUBLIC "-//W3C//DTD SVG 1.1//EN" "http://www.w3.org/Graphics/SVG/1.1/DTD/svg11.dtd">
<svg version="1.1" id="Layer_1" xmlns="http://www.w3.org/2000/svg" xmlns:xlink="http://www.w3.org/1999/xlink" x="0px" y="0px"
	 width="100px" height="100px" viewBox="0 0 100 100" enable-background="new 0 0 100 100" xml:space="preserve">
<path fill-rule="evenodd" clip-rule="evenodd" fill="none" d="M98.762,98.762c-32.031,0-64.039,0-96.022,0
	c0-32.031,0-64.039,0-96.022c32.031,0,64.038,0,96.022,0C98.762,34.77,98.762,66.777,98.762,98.762z M80.886,39.524
	c-6.634,0-12.604,0-19,0c0-12.23,0-23.893,0-35.648c-7.625,0-14.809,0-22.424,0c0,11.882,0,23.547,0,35.625
	c-6.321,0-12.217,0-18.324,0c10.189,10.129,20.053,19.934,29.728,29.55C60.515,59.56,70.381,49.854,80.886,39.524z M3.865,97.545
	c31.488,0,62.553,0,93.752,0c0-12.495,0-24.692,0-37.048c-1.991,0-3.756,0-5.903,0c0,10.516,0,20.712,0,30.972
	c-27.541,0-54.69,0-82.204,0c0-10.568,0-20.777,0-31.042c-2.057,0-3.746,0-5.646,0C3.865,72.874,3.865,85.07,3.865,97.545z"/>
<g id="XMLID_1_">
	<g>
		<path fill="#ffffff" d="M61.89,39.52c6.391,0,12.36,0,19,0C70.38,49.85,60.51,59.56,50.86,69.05
			c-9.67-9.62-19.53-19.42-29.72-29.55c6.1,0,12,0,18.32,0c0-12.08,0-23.74,0-35.62c7.62,0,14.8,0,22.43,0
			C61.89,15.63,61.89,27.29,61.89,39.52z"/>
	</g>
	<g>
	</g>
</g>
<path fill-rule="evenodd" clip-rule="evenodd" fill="#ffffff" d="M3.865,97.545c0-12.475,0-24.671,0-37.118c1.9,0,3.588,0,5.646,0
	c0,10.265,0,20.474,0,31.042c27.513,0,54.663,0,82.204,0c0-10.26,0-20.456,0-30.972c2.147,0,3.912,0,5.903,0
	c0,12.355,0,24.553,0,37.048C66.418,97.545,35.353,97.545,3.865,97.545z"/>
</svg>
