<?xml version="1.0" encoding="utf-8"?>
<!-- Generator: Adobe Illustrator 16.0.0, SVG Export Plug-In . SVG Version: 6.00 Build 0)  -->
<!DOCTYPE svg PUBLIC "-//W3C//DTD SVG 1.1//EN" "http://www.w3.org/Graphics/SVG/1.1/DTD/svg11.dtd">
<svg version="1.1" id="Layer_1" xmlns="http://www.w3.org/2000/svg" xmlns:xlink="http://www.w3.org/1999/xlink" x="0px" y="0px"
	 width="110px" height="100px" viewBox="0 0 110 100" enable-background="new 0 0 110 100" xml:space="preserve">
<g>
	<path fill="none" d="M28.608,84.344l3.747-2.884L62.66,34.775C55.49,40.464,28.608,84.344,28.608,84.344z"/>
	<path fill="#ffffff" d="M70.486,10.67c-0.648,0.453-1.273,0.908-1.777,1.5c-4.396,5.171-6.461,14.36-6.461,14.36
		c-0.707-2.217,0.653-6.857,1.954-10.445C55.087,24.3,47.013,31.75,42.871,40.035c-2.791,5.583-3.385,12.067-3.385,12.067
		l-0.257-6.463c-13.727,22.583-12.99,39.571-12.99,39.571l-5.38,11.562l3.941-4.067l2.622-4.542l2.461-3.677
		c21.948-11.301,36.959-35.042,36.959-35.042l-8.429,0.298c14.523-5.283,26.798-31.034,26.798-31.034
		C98.473-6.063,73.92,8.262,70.486,10.67z M31.845,81.416l-2.209-0.935c0,0,23.158-37.558,33.024-45.706L31.845,81.416z"/>
</g>
</svg>
