<?xml version="1.0" encoding="utf-8"?>
<!-- Generator: Adobe Illustrator 16.0.0, SVG Export Plug-In . SVG Version: 6.00 Build 0)  -->
<!DOCTYPE svg PUBLIC "-//W3C//DTD SVG 1.1//EN" "http://www.w3.org/Graphics/SVG/1.1/DTD/svg11.dtd">
<svg version="1.1" id="Layer_1" xmlns="http://www.w3.org/2000/svg" xmlns:xlink="http://www.w3.org/1999/xlink" x="0px" y="0px"
	 width="100px" height="100px" viewBox="0 0 100 100" enable-background="new 0 0 100 100" xml:space="preserve">
<g>
	<path fill-rule="evenodd" clip-rule="evenodd" fill="none" d="M49.251,2.838c4.991,0,9.981,0,14.973,0
		c-2.111,2.323-1.712,4.289,0.575,6.335c3.306,2.96,6.427,6.127,10.117,9.678c-1.585,1.247-2.654,1.931-3.533,2.805
		c-8.477,8.431-16.928,16.888-25.373,25.349c-3.357,3.364-3.335,4.117,0.083,7.563c0.439,0.442,0.917,0.85,1.316,1.326
		c2.32,2.774,4.415,2.417,6.833-0.078c5.979-6.17,12.162-12.143,18.181-18.275c3.371-3.435,6.577-7.032,10.214-10.938
		c3.677,3.809,6.789,6.845,9.675,10.084c2.055,2.305,4.025,2.622,6.349,0.586c0,4.991,0,9.981,0,14.972
		c-3.223-2.468-7.104-2.177-10.218-0.824c-1.341,0.583-1.638,4.525-1.687,6.956c-0.184,9.315-0.073,18.636-0.073,28.057
		c-24.146,0-47.887,0-71.575,0c0-23.992,0-47.734,0-71.62c10.518,0,20.743,0.096,30.963-0.103c1.536-0.03,4.32-1.405,4.342-2.215
		C50.498,9.289,49.713,6.059,49.251,2.838z"/>
	<path fill-rule="evenodd" clip-rule="evenodd" fill="#ffffff" d="M49.251,2.838c0.462,3.221,1.247,6.451,1.161,9.658
		c-0.021,0.811-2.806,2.186-4.342,2.215c-10.22,0.199-20.446,0.103-30.963,0.103c0,23.886,0,47.627,0,71.62
		c23.688,0,47.428,0,71.575,0c0-9.421-0.11-18.741,0.073-28.057c0.049-2.431,0.346-6.373,1.687-6.956
		c3.114-1.353,6.995-1.644,10.218,0.824c0,15.472,0,30.942,0,46.414c-31.941,0-63.881,0-95.821,0c0-31.941,0-63.881,0-95.821
		C18.309,2.838,33.78,2.838,49.251,2.838z"/>
	<path fill-rule="evenodd" clip-rule="evenodd" fill="#ffffff" d="M98.659,37.273c-2.323,2.035-4.294,1.719-6.349-0.586
		c-2.886-3.239-5.998-6.276-9.675-10.084c-3.637,3.906-6.843,7.503-10.214,10.938c-6.019,6.133-12.202,12.105-18.181,18.275
		c-2.418,2.495-4.513,2.853-6.833,0.078c-0.398-0.477-0.877-0.884-1.316-1.326c-3.418-3.445-3.44-4.199-0.083-7.563
		c8.445-8.461,16.896-16.918,25.373-25.349c0.879-0.875,1.948-1.558,3.533-2.805c-3.69-3.551-6.812-6.718-10.117-9.678
		c-2.287-2.047-2.687-4.013-0.575-6.335c11.478,0,22.957,0,34.436,0C98.659,14.316,98.659,25.795,98.659,37.273z"/>
</g>
</svg>
