<?xml version="1.0" encoding="utf-8"?>
<!-- Generator: Adobe Illustrator 16.0.0, SVG Export Plug-In . SVG Version: 6.00 Build 0)  -->
<!DOCTYPE svg PUBLIC "-//W3C//DTD SVG 1.1//EN" "http://www.w3.org/Graphics/SVG/1.1/DTD/svg11.dtd">
<svg version="1.1" id="Layer_1" xmlns="http://www.w3.org/2000/svg" xmlns:xlink="http://www.w3.org/1999/xlink" x="0px" y="0px"
	 width="100px" height="100px" viewBox="0 0 100 100" enable-background="new 0 0 100 100" xml:space="preserve">
<path fill-rule="evenodd" clip-rule="evenodd" fill="none" d="M41.003,89.982c-8.213-1.404-15.766-4.341-22.367-9.543
	c-1.558-1.227-1.869-2.345-0.785-4.204c4.842-8.308,6.689-17.189,5.151-26.809c-0.654-4.092-0.525-8.329,0.277-12.428
	c2.068-10.565,8.411-17.486,18.579-20.771c2.275-0.735,3.505-0.947,2.104-3.786C42.266,9,43.675,5.903,46.629,3.704
	c2.837-2.113,5.913-2.144,8.767,0.017c2.971,2.249,4.1,5.315,2.61,8.802c-0.958,2.242-0.591,2.8,1.761,3.631
	c13.275,4.695,19.267,13.317,19.435,27.456c0.029,2.491,0.122,5.036-0.308,7.469c-1.519,8.612,0.486,16.576,4.629,23.962
	c1.739,3.101,1.109,4.59-1.455,6.467c-4.619,3.38-9.905,5.258-15.122,7.335C61.125,90.812,46.25,90.654,41.003,89.982z"/>
<path fill-rule="evenodd" clip-rule="evenodd" fill="#ffffff" d="M43.974,92.937c4.031-2.041,8.026-1.499,12.484-0.831
	c1.878,0.281,1.188,1.498,0.957,2.523c-0.766,3.405-3.442,4.578-6.418,5.371C47.152,99.14,44.516,97.08,43.974,92.937z"/>
<path fill-rule="evenodd" clip-rule="evenodd" fill="#ffffff" d="M51.172,14.203c-3.403,0.041-4.894-1.8-4.779-4.599
	c0.104-2.563,1.852-4.332,4.474-4.384c2.886-0.057,4.728,1.8,4.734,4.597C55.606,12.603,53.99,14.393,51.172,14.203z"/>
</svg>
